<?xml version="1.0" standalone="no"?>
<!DOCTYPE svg PUBLIC "-//W3C//DTD SVG 20010904//EN"
 "http://www.w3.org/TR/2001/REC-SVG-20010904/DTD/svg10.dtd">
<svg version="1.0" xmlns="http://www.w3.org/2000/svg"
 width="260.000000pt" height="260.000000pt" viewBox="0 0 260.000000 260.000000"
 preserveAspectRatio="xMidYMid meet">
<metadata>
Created by potrace 1.11, written by Peter Selinger 2001-2013
</metadata>
<g transform="translate(0.000000,260.000000) scale(0.100000,-0.100000)"
fill="#000000" stroke="none">
<path d="M360 1534 c0 -875 2 -1028 14 -1040 12 -11 52 -14 195 -14 l181 0 0
-235 0 -235 743 2 742 3 3 1065 2 1065 -22 17 c-13 10 -40 18 -60 18 -20 0
-39 4 -42 9 -3 4 -25 11 -48 14 -24 4 -61 11 -83 16 -116 27 -146 33 -217 44
-43 6 -78 15 -78 19 0 4 -20 8 -45 8 -25 0 -45 5 -45 10 0 6 -22 10 -50 10
-27 0 -50 5 -50 10 0 6 -18 10 -40 10 -22 0 -40 5 -40 10 0 6 -20 10 -45 10
-25 0 -45 5 -45 10 0 6 -18 10 -40 10 -22 0 -40 5 -40 10 0 6 -20 10 -44 10
-25 0 -48 5 -51 10 -3 6 -24 10 -45 10 -21 0 -42 5 -45 10 -3 6 -24 10 -46 10
-21 0 -39 4 -39 9 0 5 -21 11 -47 14 -27 4 -66 10 -88 16 -22 5 -65 14 -95 21
-30 7 -73 16 -95 22 -22 5 -75 15 -117 21 -43 6 -78 14 -78 19 0 4 -22 8 -50
8 l-50 0 0 -1026z m260 766 c0 -5 20 -10 45 -10 25 0 45 -4 45 -10 0 -5 18
-10 39 -10 22 0 43 -4 46 -10 3 -5 24 -10 45 -10 21 0 42 -4 45 -10 3 -5 24
-10 45 -10 21 0 42 -4 45 -10 3 -5 24 -10 46 -10 21 0 39 -4 39 -10 0 -5 18
-10 39 -10 22 0 43 -4 46 -10 3 -5 24 -10 45 -10 21 0 42 -4 45 -10 3 -5 23
-10 44 -10 20 0 41 -4 47 -9 5 -5 27 -11 49 -14 38 -5 83 -15 170 -35 87 -21
149 -32 181 -32 19 0 34 -4 34 -10 0 -5 20 -10 45 -10 25 0 45 -4 45 -10 0 -5
18 -10 39 -10 22 0 43 -4 46 -10 3 -5 24 -10 46 -10 l39 0 0 -885 0 -885 -525
0 -525 0 0 125 0 125 440 0 440 0 0 329 0 328 -29 24 c-16 13 -42 33 -57 44
-15 11 -33 26 -40 33 -7 6 -17 12 -23 12 -6 0 -11 5 -11 10 0 6 -5 10 -11 10
-6 0 -24 14 -39 30 -15 17 -33 30 -39 30 -7 0 -27 15 -46 33 -18 17 -59 50
-90 72 -31 22 -67 50 -80 63 -13 12 -29 22 -35 22 -6 0 -26 16 -46 35 -19 19
-38 35 -42 35 -4 0 -18 10 -32 23 -77 70 -60 67 -369 67 l-281 0 0 315 c0 308
0 315 20 315 11 0 20 -4 20 -10z m480 -860 c8 -11 19 -20 25 -20 6 0 28 -16
49 -35 21 -19 42 -35 46 -35 4 0 27 -18 51 -40 24 -22 49 -40 54 -40 6 0 17
-9 25 -20 8 -11 20 -20 27 -20 7 0 13 -4 13 -10 0 -5 5 -10 10 -10 6 0 22 -11
36 -25 14 -14 29 -25 34 -25 4 0 27 -17 49 -37 22 -21 61 -53 86 -71 l45 -33
0 -159 0 -160 -535 0 -535 0 0 380 0 380 253 0 c241 0 253 -1 267 -20z"/>
</g>
</svg>
