<?xml version="1.0" standalone="no"?>
<!DOCTYPE svg PUBLIC "-//W3C//DTD SVG 20010904//EN"
 "http://www.w3.org/TR/2001/REC-SVG-20010904/DTD/svg10.dtd">
<svg version="1.0" xmlns="http://www.w3.org/2000/svg"
 width="260.000000pt" height="260.000000pt" viewBox="0 0 260.000000 260.000000"
 preserveAspectRatio="xMidYMid meet">
<metadata>
Created by potrace 1.11, written by Peter Selinger 2001-2013
</metadata>
<g transform="translate(0.000000,260.000000) scale(0.100000,-0.100000)"
fill="#000000" stroke="none">
<path d="M836 1378 c1 -451 3 -533 15 -534 8 -1 19 -3 24 -4 6 -1 43 -2 83 -2
39 0 72 -3 73 -6 1 -4 2 -59 3 -122 l1 -115 380 0 380 0 2 547 c1 403 -2 549
-10 556 -7 4 -34 13 -62 20 -45 10 -63 13 -130 26 -11 2 -38 9 -60 14 -22 6
-52 13 -68 16 -15 3 -35 7 -45 10 -9 3 -28 7 -42 10 -119 23 -146 29 -155 34
-5 3 -16 7 -25 8 -57 6 -106 17 -108 25 -2 5 -7 7 -10 5 -4 -2 -27 0 -52 5
-25 5 -58 12 -75 15 -16 3 -37 7 -45 11 -8 3 -28 7 -45 10 l-30 4 1 -533z
m239 378 c47 -9 67 -13 136 -29 35 -9 87 -21 114 -27 28 -6 61 -13 75 -16 14
-4 34 -7 45 -9 11 -1 38 -7 60 -13 22 -6 51 -13 65 -16 14 -2 48 -9 75 -16
l50 -11 0 -459 c0 -253 -2 -461 -5 -461 -16 -4 -550 -3 -551 1 -1 3 -2 33 -3
67 -2 50 1 64 13 67 15 4 165 9 201 7 40 -2 96 -3 105 -1 6 1 13 1 18 0 4 -1
33 -2 65 -3 l57 0 3 166 2 166 -120 92 c-66 50 -120 96 -120 102 0 6 -3 7 -7
4 -3 -4 -25 8 -47 27 -23 18 -50 37 -61 43 -11 5 -83 9 -160 9 l-140 -1 -5 40
c-3 22 -4 99 -2 171 l3 132 52 -14 c29 -7 66 -15 82 -18z m131 -415 c5 0 19
-9 30 -19 10 -9 39 -33 64 -52 25 -19 50 -39 57 -45 6 -5 41 -32 77 -59 l66
-49 0 -87 0 -87 -280 0 -280 0 0 48 c-1 27 -1 105 -1 174 0 69 0 137 1 153 l0
27 128 -1 c70 -1 132 -2 138 -3z"/>
</g>
</svg>
